# xmcd CD database generated by RipIT
#
# Track frame offsets:
# 154
# 17710
# 33967
# 46359
# 56044
# 68310
# 79454
# 92160
# 108996
# 119569
# 134409
# 145320
# 158187
# 170530
#
# Disc length: 2492 seconds
#
# Revision: 0
# Processed by: cddbd v1.5.1PL2 Copyright (c) Steve Scherf et al.
# Submitted via: RipIT 3.4 www.suwald.com/ripit/ripit.html at Sun May 21 23:35:57 EDT 2006
#
DISCID=c009ba0e
DTITLE=The Missouri Boat Ride - The Missouri Boat Ride
DYEAR=1900
DGENRE=Bluegrass
TTITLE0=Man of Constant Sorrow
TTITLE1=Circle Be Unbroken
TTITLE2=Old Home Place
TTITLE3=Old Train
TTITLE4=Some Old Day
TTITLE5=Old and In The Way
TTITLE6=Sledd Ridin
TTITLE7=Vincent Black Lightning
TTITLE8=How Mountian Girls Can Love
TTITLE9=Rebel Soldier
TTITLE10=Back To The Old Home
TTITLE11=Foggy Mountian Special
TTITLE12=Steam Powered Airplane
TTITLE13=Old Blue
EXTD=
EXTT0=
EXTT1=
EXTT2=
EXTT3=
EXTT4=
EXTT5=
EXTT6=
EXTT7=
EXTT8=
EXTT9=
EXTT10=
EXTT11=
EXTT12=
EXTT13=
PLAYORDER=
